<?xml version="1.0" encoding="iso-8859-1"?>
<!-- Generator: Adobe Illustrator 19.0.0, SVG Export Plug-In . SVG Version: 6.00 Build 0)  -->
<svg version="1.1" id="Layer_1" xmlns="http://www.w3.org/2000/svg" xmlns:xlink="http://www.w3.org/1999/xlink" x="0px" y="0px"
	 viewBox="0 0 512 512" style="enable-background:new 0 0 512 512;" xml:space="preserve">
<rect x="7.604" y="121.156" style="fill:#A0815C;" width="496.792" height="334.574"/>
<g>
	<path style="fill:#806749;" d="M504.396,202.265v-81.109H367.525v334.574h136.871v-81.109c-27.126,0-51.168,13.401-65.901,33.915
		V168.351C453.229,188.864,477.27,202.265,504.396,202.265z"/>
	<path style="fill:#806749;" d="M7.604,121.156v81.109c27.126,0,51.168-13.401,65.901-33.915v240.186
		c-14.733-20.513-38.775-33.915-65.901-33.915v81.109h136.871V121.156H7.604z"/>
</g>
<g>
	<path style="fill:#FFC853;" d="M68.436,455.731H7.604v-60.832C41.203,394.899,68.436,422.131,68.436,455.731z"/>
	<path style="fill:#FFC853;" d="M443.564,455.731h60.832v-60.832C470.797,394.899,443.564,422.131,443.564,455.731z"/>
	<path style="fill:#FFC853;" d="M68.436,121.156H7.604v60.832C41.203,181.988,68.436,154.756,68.436,121.156z"/>
	<path style="fill:#FFC853;" d="M443.564,121.156h60.832v60.832C470.797,181.988,443.564,154.756,443.564,121.156z"/>
</g>
<g>
	<rect x="93.782" y="121.156" style="fill:#57565C;" width="30.416" height="334.574"/>
	<rect x="387.802" y="121.156" style="fill:#57565C;" width="30.416" height="334.574"/>
</g>
<path style="fill:#FFC853;" d="M347.248,84.657H164.752V62.352c0-16.799,13.617-30.416,30.416-30.416h121.663
	c16.799,0,30.416,13.617,30.416,30.416V84.657z"/>
<path style="fill:#806749;" d="M369.503,350.183l-40.945-88.762l17.28-17.281c15.685-15.938,15.48-41.666-0.459-57.351
	c-7.633-7.512-17.735-11.649-28.445-11.649c-10.924,0-21.162,4.276-28.839,12.042l-17.452,17.453l-88.913-39.3l-40.31,40.309
	l71.736,56.477l-13.432,13.432l-22.977,3.015l-40.413,40.415l51.759,26.254l27.351,53.503l40.85-41.511l0.993-24.535l13.81-13.81
	l58.461,71.89L369.503,350.183z"/>
<polygon style="fill:#FFFFFF;" points="244.167,260.727 171.904,203.835 186.242,189.498 275.457,228.931 304.362,257.377 
	345.22,345.95 330.997,360.402 273.072,289.173 "/>
<polygon style="fill:#E0E0E0;" points="304.362,257.377 275.457,228.931 255.269,220.008 227.597,247.68 244.167,260.727 
	273.072,289.173 285.51,304.469 313.277,276.702 "/>
<g>
	<path style="fill:#FFFFFF;" d="M237.347,323.957l94.04-94.04c7.855-7.982,7.752-20.821-0.229-28.675
		c-7.982-7.855-20.821-7.752-28.675,0.229l-93.288,93.288l-22.976,3.015l-15.772,15.772l32.703,16.588l17.558,34.349l15.645-15.897
		L237.347,323.957z"/>
	<path style="fill:#FFFFFF;" d="M318.859,157.149h-14.194v-15.208h14.194V157.149z M289.457,157.149h-92.261v-15.208h92.261V157.149
		z"/>
</g>
<path d="M435.96,113.552h-10.139h-45.624h-25.347V92.261V62.352c0-20.965-17.055-38.02-38.02-38.02H195.168
	c-20.965,0-38.02,17.055-38.02,38.02v29.909v21.291h-25.347H86.178H76.04H0v76.04v197.703v76.04h76.04h10.139h45.624h248.396h45.624
	h10.139H512v-76.04V189.592v-76.04H435.96z M496.792,128.76v45.082c-23.276-3.344-41.739-21.805-45.082-45.082H496.792z
	 M172.356,62.352c0-12.579,10.234-22.812,22.812-22.812h121.663c12.578,0,22.812,10.233,22.812,22.812v14.701H172.356V62.352z
	 M172.356,92.261h167.287v21.291H172.356V92.261z M15.208,128.76H60.29c-3.344,23.276-21.806,41.738-45.082,45.082V128.76z
	 M15.208,448.127v-45.082c23.276,3.344,41.739,21.805,45.082,45.082H15.208z M75.607,448.127
	c-3.518-31.671-28.729-56.881-60.399-60.399V189.159c31.671-3.518,56.881-28.729,60.399-60.399h10.572v319.366H75.607z
	 M101.386,448.127V128.76h15.208v319.366H101.386z M131.802,448.127V128.76h25.347h197.703h25.347v319.366H131.802z
	 M395.406,448.127V128.76h15.208v319.366H395.406z M425.822,448.127V128.76h10.572c3.518,31.671,28.729,56.881,60.399,60.399
	v198.568c-31.671,3.518-56.881,28.729-60.399,60.399h-10.572V448.127z M496.792,448.127H451.71
	c3.344-23.276,21.806-41.738,45.082-45.082V448.127z"/>
<rect x="67.422" y="472.459" width="30.416" height="15.208"/>
<rect x="412.135" y="472.459" width="30.416" height="15.208"/>
<rect x="189.085" y="50.693" width="15.208" height="15.208"/>
<rect x="249.917" y="50.693" width="15.208" height="15.208"/>
<rect x="219.501" y="50.693" width="15.208" height="15.208"/>
<rect x="280.333" y="50.693" width="15.208" height="15.208"/>
<rect x="310.749" y="50.693" width="15.208" height="15.208"/>
<path d="M336.806,235.251c5.223-5.309,8.068-12.333,8.008-19.78c-0.06-7.447-3.016-14.425-8.324-19.649
	c-5.308-5.223-12.364-8.081-19.78-8.007c-7.448,0.06-14.425,3.016-19.606,8.28l-23.641,23.641l-88.913-39.299l-24.077,24.077
	l71.736,56.477l-26.566,26.567l-22.976,3.015l-25.012,25.013l39.848,20.212l21.23,41.532l25.097-25.503l0.994-24.594l27.243-27.243
	l58.39,71.802l23.868-24.254l-40.976-88.831L336.806,235.251z M183.337,203.158l4.598-4.599l73.998,32.708l-18.893,18.893
	L183.337,203.158z M229.87,320.681l-0.998,24.663l-6.192,6.293l-13.886-27.165l-25.556-12.963l6.53-6.53l22.976-3.015l95.157-95.158
	c2.374-2.413,5.546-3.756,8.931-3.784c0.034,0,0.069,0,0.105,0c3.346,0,6.498,1.291,8.887,3.641
	c2.413,2.374,3.756,5.547,3.784,8.932c0.026,3.384-1.266,6.578-3.598,8.947L229.87,320.681z M336.114,344.362l-4.578,4.652
	l-48.659-59.834l19.011-19.011L336.114,344.362z"/>
<g>
</g>
<g>
</g>
<g>
</g>
<g>
</g>
<g>
</g>
<g>
</g>
<g>
</g>
<g>
</g>
<g>
</g>
<g>
</g>
<g>
</g>
<g>
</g>
<g>
</g>
<g>
</g>
<g>
</g>
</svg>
